<svg viewBox="0 0 6038 1529" fill="none" xmlns="http://www.w3.org/2000/svg">
    <path d="M1271.34 958.772H1034.84C976.162 958.772 928.591 1006.25 928.591 1064.82V1186.43C928.591 1214.54 939.768 1241.49 959.668 1261.37L1196.16 1497.68C1263.08 1564.55 1377.59 1517.25 1377.59 1422.74V1064.82C1377.59 1006.25 1330.02 958.772 1271.34 958.772Z" fill="#9A48EA"/>
    <path d="M449.079 120.204C878.518 -127.249 1427.65 19.6042 1675.59 448.206C1728.72 540.062 1697.19 657.522 1605.15 710.555C1513.12 763.587 1395.43 732.11 1342.29 640.259C1200.63 395.372 886.873 311.465 641.508 452.85C396.148 594.237 312.073 907.384 453.733 1152.27C506.865 1244.12 475.334 1361.59 383.299 1414.62C291.267 1467.64 173.574 1436.17 120.437 1344.32C-127.498 915.722 19.6462 367.659 449.079 120.204Z" fill="#9A48EA"/>
    <path d="M2055.2 1303.89V344.947H2258.34V1136.73H2670.26V1303.89H2055.2Z" fill="#1A1A1A"/>
    <path d="M3183.87 997.664V584.682H3383.73V1303.89H3191.85V1173.25H3184.34C3168.08 1215.39 3141.03 1249.26 3103.18 1274.86C3065.65 1300.45 3019.83 1313.25 2965.72 1313.25C2917.56 1313.25 2875.18 1302.33 2838.58 1280.48C2801.99 1258.63 2773.37 1227.57 2752.73 1187.3C2732.4 1147.03 2722.08 1098.8 2721.76 1042.61V584.682H2921.62V1007.03C2921.93 1049.48 2933.35 1083.04 2955.87 1107.7C2978.39 1132.36 3008.57 1144.69 3046.41 1144.69C3070.5 1144.69 3093.02 1139.23 3113.97 1128.3C3134.93 1117.06 3151.82 1100.52 3164.64 1078.67C3177.78 1056.82 3184.19 1029.82 3183.87 997.664Z" fill="#1A1A1A"/>
    <path d="M3729.86 1315.59C3675.13 1315.59 3625.56 1301.55 3581.14 1273.45C3537.04 1245.05 3502.01 1203.37 3476.06 1148.43C3450.41 1093.18 3437.59 1025.45 3437.59 945.222C3437.59 862.813 3450.88 794.294 3477.46 739.667C3504.05 684.728 3539.39 643.68 3583.49 616.522C3627.9 589.052 3676.54 575.318 3729.4 575.318C3769.74 575.318 3803.36 582.185 3830.26 595.92C3857.47 609.342 3879.37 626.199 3895.94 646.489C3912.83 666.467 3925.66 686.133 3934.41 705.486H3940.51V344.947H4139.9V1303.89H3942.86V1188.7H3934.41C3925.03 1208.68 3911.74 1228.5 3894.54 1248.17C3877.65 1267.52 3855.6 1283.6 3828.39 1296.4C3801.49 1309.19 3768.65 1315.59 3729.86 1315.59ZM3793.2 1156.86C3825.41 1156.86 3852.62 1148.12 3874.83 1130.64C3897.35 1112.85 3914.55 1088.03 3926.44 1056.19C3938.64 1024.35 3944.73 987.051 3944.73 944.285C3944.73 901.52 3938.79 864.373 3926.91 832.846C3915.02 801.318 3897.82 776.97 3875.3 759.801C3852.78 742.633 3825.41 734.049 3793.2 734.049C3760.36 734.049 3732.68 742.945 3710.16 760.738C3687.64 778.531 3670.6 803.191 3659.02 834.719C3647.45 866.246 3641.67 902.769 3641.67 944.285C3641.67 986.114 3647.45 1023.1 3659.02 1055.26C3670.91 1087.1 3687.95 1112.07 3710.16 1130.17C3732.68 1147.97 3760.36 1156.86 3793.2 1156.86Z" fill="#1A1A1A"/>
    <path d="M4687.06 997.664V584.682H4886.92V1303.89H4695.04V1173.25H4687.53C4671.27 1215.39 4644.21 1249.26 4606.37 1274.86C4568.84 1300.45 4523.02 1313.25 4468.91 1313.25C4420.74 1313.25 4378.36 1302.33 4341.77 1280.48C4305.18 1258.63 4276.56 1227.57 4255.92 1187.3C4235.59 1147.03 4225.26 1098.8 4224.95 1042.61V584.682H4424.81V1007.03C4425.12 1049.48 4436.54 1083.04 4459.06 1107.7C4481.58 1132.36 4511.76 1144.69 4549.6 1144.69C4573.69 1144.69 4596.2 1139.23 4617.16 1128.3C4638.11 1117.06 4655 1100.52 4667.83 1078.67C4680.96 1056.82 4687.38 1029.82 4687.06 997.664Z" fill="#1A1A1A"/>
    <path d="M5567.09 789.768L5384.12 801.006C5380.99 785.398 5374.27 771.351 5363.94 758.865C5353.62 746.066 5340.02 735.921 5323.13 728.43C5306.55 720.626 5286.69 716.724 5263.55 716.724C5232.58 716.724 5206.47 723.279 5185.2 736.39C5163.93 749.188 5153.3 766.357 5153.3 787.895C5153.3 805.064 5160.18 819.579 5173.94 831.441C5187.7 843.303 5211.32 852.824 5244.78 860.003L5375.2 886.224C5445.26 900.583 5497.5 923.683 5531.9 955.523C5566.3 987.363 5583.51 1029.19 5583.51 1081.01C5583.51 1128.14 5569.59 1169.51 5541.75 1205.09C5514.23 1240.68 5476.38 1268.46 5428.22 1288.44C5380.36 1308.1 5325.16 1317.94 5262.61 1317.94C5167.22 1317.94 5091.21 1298.11 5034.6 1258.47C4978.3 1218.51 4945.31 1164.2 4935.61 1095.52L5132.19 1085.22C5138.13 1114.25 5152.52 1136.42 5175.35 1151.71C5198.18 1166.7 5227.42 1174.19 5263.08 1174.19C5298.11 1174.19 5326.26 1167.48 5347.52 1154.05C5369.11 1140.32 5380.05 1122.68 5380.36 1101.14C5380.05 1083.04 5372.39 1068.21 5357.38 1056.66C5342.36 1044.8 5319.22 1035.75 5287.94 1029.5L5163.15 1004.69C5092.78 990.64 5040.39 966.292 5005.98 931.643C4971.89 896.994 4954.85 852.824 4954.85 799.133C4954.85 752.934 4967.36 713.134 4992.38 679.733C5017.71 646.333 5053.21 620.58 5098.88 602.475C5144.85 584.37 5198.65 575.318 5260.26 575.318C5351.28 575.318 5422.9 594.515 5475.13 632.91C5527.68 671.305 5558.33 723.591 5567.09 789.768Z" fill="#1A1A1A"/>
    <path d="M5729.92 596.931V389.597H5830.41C5845.05 389.597 5858 392.406 5869.26 398.025C5880.71 403.644 5889.53 411.604 5895.72 421.905C5902.1 432.206 5905.29 444.568 5905.29 458.989C5905.29 473.598 5902.01 486.053 5895.44 496.354C5888.87 506.468 5879.77 514.241 5868.13 519.672C5856.69 524.916 5843.46 527.539 5828.44 527.539H5760.89V486.802H5817.75C5826.19 486.802 5833.04 484.461 5838.3 479.779C5843.55 475.096 5846.18 468.167 5846.18 458.989C5846.18 449.437 5843.55 442.507 5838.3 438.2C5833.04 433.705 5826.29 431.457 5818.03 431.457H5786.78V596.931H5729.92ZM5865.04 501.973L5910.92 596.931H5848.71L5806.49 501.973H5865.04ZM5812.4 720.544C5781.25 720.544 5752.07 714.738 5724.86 703.126C5697.65 691.514 5673.72 675.407 5653.08 654.804C5632.43 634.202 5616.29 610.322 5604.66 583.165C5593.03 556.007 5587.21 526.883 5587.21 495.792C5587.21 464.702 5593.03 435.578 5604.66 408.42C5616.29 381.262 5632.43 357.383 5653.08 336.78C5673.72 316.178 5697.65 300.071 5724.86 288.459C5752.07 276.846 5781.25 271.04 5812.4 271.04C5843.55 271.04 5872.73 276.846 5899.94 288.459C5927.15 300.071 5951.08 316.178 5971.72 336.78C5992.36 357.383 6008.5 381.262 6020.14 408.42C6031.77 435.578 6037.59 464.702 6037.59 495.792C6037.59 526.883 6031.77 556.007 6020.14 583.165C6008.5 610.322 5992.36 634.202 5971.72 654.804C5951.08 675.407 5927.15 691.514 5899.94 703.126C5872.73 714.738 5843.55 720.544 5812.4 720.544ZM5812.4 659.299C5842.8 659.299 5870.39 651.995 5895.16 637.386C5919.93 622.59 5939.63 602.83 5954.27 578.108C5969.09 553.385 5976.51 525.947 5976.51 495.792C5976.51 465.638 5969.09 438.2 5954.27 413.477C5939.63 388.754 5919.83 369.088 5894.88 354.48C5870.1 339.683 5842.61 332.285 5812.4 332.285C5782.19 332.285 5754.69 339.683 5729.92 354.48C5705.15 369.088 5685.35 388.754 5670.53 413.477C5655.89 438.2 5648.57 465.638 5648.57 495.792C5648.57 525.947 5655.89 553.385 5670.53 578.108C5685.35 602.83 5705.15 622.59 5729.92 637.386C5754.69 651.995 5782.19 659.299 5812.4 659.299Z" fill="#1A1A1A"/>
</svg>
