<svg width="1378" height="1529" viewBox="0 0 1378 1529" fill="none" xmlns="http://www.w3.org/2000/svg">
<path d="M1271.34 958.772H1034.84C976.162 958.772 928.591 1006.25 928.591 1064.82V1186.43C928.591 1214.54 939.768 1241.49 959.668 1261.37L1196.16 1497.68C1263.08 1564.55 1377.59 1517.25 1377.59 1422.74V1064.82C1377.59 1006.25 1330.02 958.772 1271.34 958.772Z" fill="#9A48EA"/>
<path d="M449.079 120.204C878.518 -127.249 1427.65 19.6042 1675.59 448.206C1728.72 540.062 1697.19 657.522 1605.15 710.555C1513.12 763.587 1395.43 732.11 1342.29 640.259C1200.63 395.372 886.873 311.465 641.508 452.85C396.148 594.237 312.073 907.384 453.733 1152.27C506.865 1244.12 475.334 1361.59 383.299 1414.62C291.267 1467.64 173.574 1436.17 120.437 1344.32C-127.498 915.722 19.6462 367.659 449.079 120.204Z" fill="#9A48EA"/>
</svg>
